<svg width="48" height="48" viewBox="0 0 48 48" fill="none" xmlns="http://www.w3.org/2000/svg">
<rect width="48" height="48" rx="8" fill="#FCBD11"/>
<path d="M24.0015 9C15.7172 9 9.00146 15.7157 9.00146 24C9.00146 31.4869 14.4867 37.6924 21.6577 38.8177V28.3359H17.8491V24H21.6577V20.6953C21.6577 16.9359 23.8971 14.8594 27.3234 14.8594C28.9645 14.8594 30.6811 15.1523 30.6811 15.1523V18.8438H28.7896C26.9263 18.8438 26.3452 20 26.3452 21.1863V24H30.5053L29.8404 28.3359H26.3452V38.8177C33.5161 37.6924 39.0015 31.4869 39.0015 24C39.0015 15.7157 32.2857 9 24.0015 9Z" fill="black"/>
</svg>
