<svg width="48" height="48" viewBox="0 0 48 48" fill="none" xmlns="http://www.w3.org/2000/svg">
<rect width="48" height="48" rx="8" fill="#FCBD11"/>
<path d="M39 24C39 32.2842 32.2842 39 24 39C15.7157 39 9 32.2842 9 24C9 15.7157 15.7157 9 24 9C32.2842 9 39 15.7157 39 24ZM24.5376 20.0737C23.0786 20.6805 20.1627 21.9366 15.7899 23.8417C15.0798 24.1241 14.7079 24.4004 14.674 24.6704C14.6168 25.127 15.1884 25.3067 15.9669 25.5514C16.0728 25.5847 16.1825 25.6192 16.2949 25.6558C17.0608 25.9047 18.0911 26.196 18.6266 26.2076C19.1125 26.2181 19.6547 26.0178 20.2533 25.6067C24.339 22.8488 26.448 21.4548 26.5805 21.4248C26.6739 21.4035 26.8034 21.3769 26.891 21.4548C26.9787 21.5328 26.97 21.6804 26.9608 21.72C26.9042 21.9615 24.6602 24.0477 23.499 25.1273C23.1527 25.4492 22.8152 25.778 22.475 26.1059C21.7635 26.7917 21.2299 27.306 22.5045 28.146C23.7966 28.9975 25.0984 29.8473 26.3586 30.7457C26.9801 31.1888 27.5385 31.5869 28.2282 31.5234C28.6292 31.4865 29.0431 31.1096 29.2533 29.9855C29.7502 27.329 30.7271 21.5731 30.9528 19.2012C30.9726 18.9935 30.9477 18.7275 30.9277 18.6108C30.9078 18.494 30.8659 18.3277 30.7143 18.2045C30.5345 18.0587 30.2571 18.0279 30.133 18.0301C29.5687 18.0401 28.7033 18.3411 24.5376 20.0737Z" fill="black"/>
</svg>
